<?xml version="1.0" encoding="UTF-8" standalone="no"?><!DOCTYPE svg PUBLIC "-//W3C//DTD SVG 1.1//EN" "http://www.w3.org/Graphics/SVG/1.1/DTD/svg11.dtd"><svg width="100%" height="100%" viewBox="0 0 540 540" version="1.1" xmlns="http://www.w3.org/2000/svg" xmlns:xlink="http://www.w3.org/1999/xlink" xml:space="preserve" xmlns:serif="http://www.serif.com/" style="fill-rule:evenodd;clip-rule:evenodd;stroke-linejoin:round;stroke-miterlimit:2;"><g id="Artboard1"><path d="M270,0c149.017,0 270,120.983 270,270c0,149.017 -120.983,270 -270,270c-149.017,0 -270,-120.983 -270,-270c0,-149.017 120.983,-270 270,-270Zm0,50c-121.421,0 -220,98.579 -220,220c0,121.421 98.579,220 220,220c121.421,0 220,-98.579 220,-220c0,-121.421 -98.579,-220 -220,-220Zm0,50c93.826,0 170,76.174 170,170c0,93.826 -76.174,170 -170,170c-93.826,0 -170,-76.174 -170,-170c0,-93.826 76.174,-170 170,-170Zm0,50c-66.23,0 -120,53.77 -120,120c0,66.23 53.77,120 120,120c66.23,0 120,-53.77 120,-120c0,-66.23 -53.77,-120 -120,-120Z"/><path d="M422.775,195.399c11.031,22.527 17.225,47.846 17.225,74.601c-0,26.755 -6.194,52.074 -17.225,74.601c-2.556,0.264 -5.15,0.399 -7.775,0.399c-15.66,0 -30.206,-4.81 -42.239,-13.032c10.941,-18.093 17.239,-39.301 17.239,-61.968c-0,-22.667 -6.298,-43.875 -17.239,-61.968c12.033,-8.222 26.579,-13.032 42.239,-13.032c2.625,0 5.219,0.135 7.775,0.399Z" style="fill:#494949;"/><path d="M415,145c68.989,0 125,56.011 125,125c0,68.989 -56.011,125 -125,125c-68.989,0 -125,-56.011 -125,-125c-0,-68.989 56.011,-125 125,-125Zm0,50c-41.394,0 -75,33.606 -75,75c0,41.394 33.606,75 75,75c41.394,0 75,-33.606 75,-75c0,-41.394 -33.606,-75 -75,-75Z" style="fill-opacity:0.5;"/></g></svg>